<svg width="274" height="40" viewBox="0 0 274 40" fill="none" xmlns="http://www.w3.org/2000/svg">
<path d="M4.616 39.176C3.656 39.176 2.744 38.92 1.88 38.408C1.048 37.896 0.632 37.24 0.632 36.44C0.632 36.024 0.696 35.576 0.824 35.096C0.984 34.616 1.128 34.168 1.256 33.752C2.248 30.712 3.176 27.88 4.04 25.256C4.904 22.6 5.768 20.056 6.632 17.624C7.528 15.16 8.456 12.696 9.416 10.232C10.408 7.768 11.512 5.192 12.728 2.504C11.512 2.76 10.472 3.096 9.608 3.512C8.744 3.896 8.04 4.248 7.496 4.568C6.952 4.856 6.552 5 6.296 5C6.136 5 5.896 4.888 5.576 4.664C5.288 4.44 5.032 4.184 4.808 3.896C4.584 3.608 4.472 3.352 4.472 3.128C5.368 2.744 6.408 2.344 7.592 1.928C8.808 1.512 10.12 1.16 11.528 0.871999C12.936 0.583999 14.344 0.439999 15.752 0.439999C17.256 0.439999 18.792 0.647999 20.36 1.064C21.928 1.448 23.368 2.04 24.68 2.84C26.024 3.608 27.096 4.584 27.896 5.768C28.728 6.92 29.144 8.28 29.144 9.848C29.144 11.544 28.76 13 27.992 14.216C27.224 15.432 26.2 16.456 24.92 17.288C23.672 18.12 22.312 18.792 20.84 19.304C19.368 19.816 17.896 20.2 16.424 20.456C14.984 20.712 13.688 20.888 12.536 20.984C11.384 21.08 10.52 21.128 9.944 21.128H9.656C8.76 24.296 7.88 27.464 7.016 30.632C6.152 33.768 5.352 36.616 4.616 39.176ZM10.088 19.64C11.88 19.512 13.672 19.208 15.464 18.728C17.256 18.248 18.872 17.592 20.312 16.76C21.784 15.896 22.952 14.824 23.816 13.544C24.712 12.264 25.16 10.776 25.16 9.08C25.16 7.48 24.728 6.184 23.864 5.192C23.032 4.2 21.944 3.448 20.6 2.936C19.288 2.424 17.896 2.152 16.424 2.12C15.272 4.36 14.168 7.016 13.112 10.088C12.056 13.128 11.048 16.312 10.088 19.64ZM25.8399 36.536C24.3999 36.536 23.4079 36.056 22.8639 35.096C22.3519 34.168 22.0959 33.144 22.0959 32.024C22.0959 31 22.2559 29.96 22.5759 28.904C22.8959 27.816 23.3279 26.808 23.8719 25.88C24.4479 24.952 25.0719 24.216 25.7439 23.672C26.4479 23.096 27.1519 22.808 27.8559 22.808C28.0799 22.808 28.3359 22.856 28.6239 22.952C28.9439 23.016 29.1679 23.128 29.2959 23.288C28.9119 23.768 28.5119 24.36 28.0959 25.064C27.7119 25.768 27.3439 26.52 26.9919 27.32C26.6719 28.088 26.4159 28.872 26.2239 29.672C26.0319 30.472 25.9359 31.208 25.9359 31.88C25.9359 32.52 26.0479 33.048 26.2719 33.464C26.5279 33.88 26.9599 34.088 27.5679 34.088C28.1759 34.088 28.8959 33.752 29.7279 33.08C30.5919 32.376 31.4079 31.576 32.1759 30.68C31.1519 29.752 30.4159 28.744 29.9679 27.656C29.5199 26.536 29.2959 25.192 29.2959 23.624C29.2959 22.952 29.4559 22.184 29.7759 21.32C30.1279 20.456 30.6719 19.704 31.4079 19.064C32.1759 18.424 33.1999 18.104 34.4799 18.104C35.8559 18.104 36.8159 18.488 37.3599 19.256C37.9359 20.024 38.2239 20.936 38.2239 21.992C38.2239 23.176 37.9039 24.504 37.2639 25.976C36.6559 27.448 35.9199 28.84 35.0559 30.152C35.4399 30.344 35.8879 30.44 36.3999 30.44C36.8799 30.44 37.4559 30.328 38.1279 30.104C38.7999 29.88 39.4559 29.512 40.0959 29C40.7359 28.456 41.2479 27.736 41.6319 26.84L42.4959 27.464C41.7919 29.096 40.8479 30.296 39.6639 31.064C38.5119 31.8 37.3759 32.168 36.2559 32.168C35.8399 32.168 35.4239 32.136 35.0079 32.072C34.5919 31.976 34.2079 31.864 33.8559 31.736C32.7679 33.016 31.5199 34.136 30.1119 35.096C28.7039 36.056 27.2799 36.536 25.8399 36.536ZM33.4239 29.144C34.1919 28.024 34.8479 26.824 35.3919 25.544C35.9359 24.264 36.2079 23.08 36.2079 21.992C36.2079 21.256 36.0959 20.728 35.8719 20.408C35.6479 20.056 35.3119 19.88 34.8639 19.88C34.2559 19.88 33.6319 20.312 32.9919 21.176C32.3519 22.04 32.0319 23.128 32.0319 24.44C32.0319 25.112 32.1439 25.928 32.3679 26.888C32.6239 27.848 32.9759 28.6 33.4239 29.144ZM65.6353 36.488C64.3873 36.488 63.4593 36.12 62.8513 35.384C62.2433 34.648 61.9393 33.768 61.9393 32.744C61.9393 32.008 62.0513 31.272 62.2753 30.536C62.4993 29.8 62.7233 29.08 62.9473 28.376C63.1713 27.64 63.2833 26.984 63.2833 26.408C63.2833 25.864 63.1713 25.496 62.9473 25.304C62.7553 25.08 62.4993 24.968 62.1793 24.968C61.4433 24.968 60.5793 25.528 59.5873 26.648C58.6273 27.768 57.4273 29.4 55.9873 31.544C55.4753 32.312 54.9953 33.128 54.5473 33.992C54.0993 34.824 53.6993 35.528 53.3473 36.104C53.0593 36.104 52.6753 36.056 52.1953 35.96C51.7473 35.864 51.3473 35.72 50.9953 35.528C50.6433 35.368 50.4673 35.144 50.4673 34.856C50.4673 34.568 50.6273 34.008 50.9473 33.176C51.2673 32.344 51.6353 31.384 52.0513 30.296C52.4673 29.176 52.8353 28.088 53.1553 27.032C53.4753 25.944 53.6353 25.032 53.6353 24.296C53.6353 23.848 53.5553 23.496 53.3953 23.24C53.2353 22.984 52.9793 22.856 52.6273 22.856C51.9553 22.856 51.1393 23.256 50.1793 24.056C49.2513 24.856 48.2593 25.912 47.2033 27.224C46.1793 28.504 45.2033 29.944 44.2753 31.544C43.3793 33.112 42.6433 34.696 42.0673 36.296C41.7153 36.296 41.2833 36.216 40.7713 36.056C40.2592 35.928 39.8112 35.752 39.4272 35.528C39.0432 35.336 38.8512 35.16 38.8512 35C38.8512 34.968 38.9632 34.52 39.1872 33.656C39.4112 32.76 39.6832 31.656 40.0032 30.344C40.3232 29.032 40.6593 27.688 41.0113 26.312C41.3633 24.936 41.6673 23.736 41.9233 22.712C42.0193 22.36 42.3713 22.056 42.9793 21.8C43.5873 21.512 44.1153 21.368 44.5633 21.368C45.0113 21.368 45.3953 21.512 45.7153 21.8C46.0353 22.088 46.1953 22.472 46.1953 22.952C46.1953 23.272 46.1313 23.736 46.0033 24.344C45.8753 24.952 45.7153 25.64 45.5233 26.408C46.1953 25.512 46.8993 24.632 47.6353 23.768C48.4033 22.872 49.1873 22.072 49.9873 21.368C50.8193 20.664 51.6353 20.104 52.4353 19.688C53.2673 19.272 54.0833 19.064 54.8833 19.064C56.0673 19.064 56.8673 19.496 57.2833 20.36C57.6993 21.192 57.9073 22.104 57.9073 23.096C57.9073 23.512 57.8753 23.928 57.8113 24.344C57.7473 24.728 57.6513 25.128 57.5233 25.544C57.4273 25.928 57.2833 26.392 57.0913 26.936C57.6993 26.04 58.3553 25.224 59.0593 24.488C59.7953 23.72 60.5793 23.112 61.4113 22.664C62.2433 22.216 63.1233 21.992 64.0513 21.992C65.2993 21.992 66.1633 22.376 66.6433 23.144C67.1233 23.88 67.3633 24.696 67.3633 25.592C67.3633 26.424 67.2193 27.304 66.9313 28.232C66.6753 29.128 66.4033 29.992 66.1153 30.824C65.8593 31.624 65.7313 32.312 65.7313 32.888C65.7313 33.208 65.8113 33.512 65.9713 33.8C66.1313 34.056 66.4513 34.184 66.9313 34.184C67.7953 34.184 68.6273 33.784 69.4273 32.984C70.2273 32.184 70.9633 31.208 71.6353 30.056C72.3393 28.872 72.9313 27.752 73.4113 26.696L74.2273 27.704C73.7153 29.016 73.0433 30.36 72.2113 31.736C71.4113 33.08 70.4673 34.2 69.3793 35.096C68.2913 36.024 67.0433 36.488 65.6353 36.488ZM75.3867 36.536C73.9468 36.536 72.9548 36.056 72.4108 35.096C71.8987 34.168 71.6427 33.144 71.6427 32.024C71.6427 31 71.8027 29.96 72.1227 28.904C72.4428 27.816 72.8748 26.808 73.4188 25.88C73.9948 24.952 74.6188 24.216 75.2908 23.672C75.9948 23.096 76.6988 22.808 77.4028 22.808C77.6268 22.808 77.8828 22.856 78.1708 22.952C78.4908 23.016 78.7148 23.128 78.8428 23.288C78.4588 23.768 78.0588 24.36 77.6428 25.064C77.2588 25.768 76.8908 26.52 76.5388 27.32C76.2188 28.088 75.9628 28.872 75.7708 29.672C75.5788 30.472 75.4828 31.208 75.4828 31.88C75.4828 32.52 75.5948 33.048 75.8188 33.464C76.0748 33.88 76.5068 34.088 77.1148 34.088C77.7228 34.088 78.4428 33.752 79.2747 33.08C80.1388 32.376 80.9548 31.576 81.7228 30.68C80.6988 29.752 79.9628 28.744 79.5148 27.656C79.0668 26.536 78.8428 25.192 78.8428 23.624C78.8428 22.952 79.0028 22.184 79.3228 21.32C79.6748 20.456 80.2188 19.704 80.9548 19.064C81.7228 18.424 82.7468 18.104 84.0268 18.104C85.4028 18.104 86.3628 18.488 86.9068 19.256C87.4828 20.024 87.7708 20.936 87.7708 21.992C87.7708 23.176 87.4508 24.504 86.8108 25.976C86.2028 27.448 85.4668 28.84 84.6028 30.152C84.9868 30.344 85.4348 30.44 85.9468 30.44C86.4268 30.44 87.0028 30.328 87.6748 30.104C88.3468 29.88 89.0028 29.512 89.6428 29C90.2828 28.456 90.7948 27.736 91.1788 26.84L92.0428 27.464C91.3388 29.096 90.3948 30.296 89.2108 31.064C88.0588 31.8 86.9228 32.168 85.8028 32.168C85.3868 32.168 84.9708 32.136 84.5547 32.072C84.1388 31.976 83.7548 31.864 83.4028 31.736C82.3148 33.016 81.0668 34.136 79.6588 35.096C78.2508 36.056 76.8268 36.536 75.3867 36.536ZM82.9708 29.144C83.7388 28.024 84.3948 26.824 84.9388 25.544C85.4828 24.264 85.7548 23.08 85.7548 21.992C85.7548 21.256 85.6428 20.728 85.4188 20.408C85.1948 20.056 84.8588 19.88 84.4108 19.88C83.8028 19.88 83.1788 20.312 82.5388 21.176C81.8988 22.04 81.5788 23.128 81.5788 24.44C81.5788 25.112 81.6908 25.928 81.9148 26.888C82.1708 27.848 82.5228 28.6 82.9708 29.144ZM93.3901 36.44C92.7821 36.44 92.1581 36.28 91.5181 35.96C90.9101 35.672 90.3981 35.208 89.9821 34.568C89.5341 33.928 89.3101 33.112 89.3101 32.12C89.3101 31.064 89.5661 29.88 90.0781 28.568C90.5901 27.256 91.2781 25.944 92.1421 24.632C93.0381 23.32 94.0621 22.12 95.2141 21.032C96.3981 19.944 97.6461 19.064 98.9581 18.392C100.27 17.72 101.598 17.384 102.942 17.384C103.678 17.384 104.254 17.512 104.67 17.768C105.086 17.992 105.294 18.376 105.294 18.92C105.294 19.08 105.262 19.272 105.198 19.496C105.134 19.688 104.974 19.864 104.718 20.024C104.59 19.832 104.366 19.704 104.046 19.64C103.726 19.544 103.39 19.496 103.038 19.496C101.982 19.496 100.974 19.8 100.014 20.408C99.0541 20.984 98.1741 21.736 97.3741 22.664C96.5741 23.592 95.8701 24.6 95.2621 25.688C94.6861 26.776 94.2381 27.832 93.9181 28.856C93.5981 29.848 93.4381 30.712 93.4381 31.448C93.4381 32.056 93.5661 32.552 93.8221 32.936C94.0781 33.288 94.4621 33.464 94.9741 33.464C95.8381 33.464 96.8621 32.968 98.0461 31.976C99.2621 30.952 100.494 29.496 101.742 27.608C103.022 25.688 104.174 23.4 105.198 20.744C105.902 18.92 106.638 17.064 107.406 15.176C108.174 13.256 108.942 11.416 109.71 9.656C110.478 7.896 111.23 6.328 111.966 4.952C112.734 3.576 113.454 2.488 114.126 1.688C114.83 0.855999 115.47 0.439999 116.046 0.439999C116.398 0.439999 116.702 0.583999 116.958 0.871999C117.246 1.128 117.39 1.464 117.39 1.88C117.39 2.424 117.118 3.304 116.574 4.52C116.062 5.704 115.39 7.128 114.558 8.792C113.758 10.456 112.878 12.264 111.918 14.216C110.99 16.136 110.11 18.12 109.278 20.168C108.478 22.184 107.806 24.184 107.262 26.168C106.75 28.12 106.494 29.96 106.494 31.688C106.494 32.456 106.558 32.984 106.686 33.272C106.846 33.528 107.102 33.656 107.454 33.656C108.158 33.656 108.942 33.384 109.806 32.84C110.67 32.296 111.55 31.496 112.446 30.44C113.342 29.352 114.158 28.056 114.894 26.552L115.806 27.32C115.102 29.08 114.206 30.632 113.118 31.976C112.03 33.32 110.862 34.36 109.614 35.096C108.366 35.864 107.134 36.248 105.918 36.248C104.606 36.248 103.694 35.832 103.182 35C102.67 34.168 102.414 33.192 102.414 32.072C102.414 31.56 102.446 31.048 102.51 30.536C102.606 29.992 102.702 29.464 102.798 28.952C101.806 30.392 100.75 31.688 99.6301 32.84C98.5421 33.96 97.4701 34.84 96.4141 35.48C95.3581 36.12 94.3501 36.44 93.3901 36.44ZM117.448 36.536C115.976 36.536 114.888 36.088 114.184 35.192C113.48 34.328 113.128 33.256 113.128 31.976C113.128 30.312 113.416 28.76 113.992 27.32C114.6 25.88 115.352 24.584 116.248 23.432C117.176 22.248 118.168 21.24 119.224 20.408C120.28 19.576 121.272 18.936 122.2 18.488C123.16 18.04 123.944 17.816 124.552 17.816C124.712 17.816 124.936 17.848 125.224 17.912C125.512 17.976 125.72 18.136 125.848 18.392C125.944 18.328 126.04 18.28 126.136 18.248C126.264 18.216 126.392 18.2 126.52 18.2C127.416 18.2 127.992 18.456 128.248 18.968C128.536 19.48 128.68 20.04 128.68 20.648C128.68 21.192 128.52 21.816 128.2 22.52C127.912 23.224 127.608 24.008 127.288 24.872C127 25.704 126.856 26.664 126.856 27.752C126.856 28.328 127.016 28.776 127.336 29.096C127.688 29.384 128.088 29.528 128.536 29.528C129.784 29.528 130.808 29.256 131.608 28.712C132.408 28.136 133.064 27.384 133.576 26.456C134.088 25.528 134.52 24.52 134.872 23.432C135.224 22.312 135.56 21.208 135.88 20.12C135.592 19.768 135.448 19.368 135.448 18.92C135.448 18.216 135.592 17.608 135.88 17.096C136.168 16.552 136.488 16.136 136.84 15.848C137.224 15.528 137.528 15.368 137.752 15.368C138.264 15.368 138.568 15.56 138.664 15.944C138.76 16.328 138.808 16.632 138.808 16.856C138.808 17.016 138.712 17.304 138.52 17.72C138.36 18.136 138.28 18.424 138.28 18.584C138.28 18.904 138.536 19.24 139.048 19.592C139.592 19.912 140.2 20.296 140.872 20.744C141.544 21.192 142.136 21.768 142.648 22.472C143.192 23.144 143.464 23.992 143.464 25.016C143.464 25.976 143.272 26.936 142.888 27.896C142.504 28.856 142.12 29.752 141.736 30.584C141.352 31.416 141.16 32.136 141.16 32.744C141.16 33.224 141.272 33.544 141.496 33.704C141.752 33.832 142.04 33.896 142.36 33.896C143.096 33.896 143.864 33.672 144.664 33.224C145.496 32.744 146.296 32.136 147.064 31.4C147.832 30.664 148.52 29.896 149.128 29.096C149.736 28.264 150.184 27.512 150.472 26.84L151.432 27.512C150.792 28.888 149.944 30.248 148.888 31.592C147.832 32.936 146.632 34.056 145.288 34.952C143.976 35.848 142.6 36.296 141.16 36.296C139.976 36.296 139 35.976 138.232 35.336C137.496 34.696 137.128 33.88 137.128 32.888C137.128 31.96 137.336 30.984 137.752 29.96C138.168 28.936 138.584 27.944 139 26.984C139.416 26.024 139.624 25.16 139.624 24.392C139.624 23.56 139.352 22.888 138.808 22.376C138.264 21.832 137.688 21.4 137.08 21.08C136.696 22.232 136.264 23.416 135.784 24.632C135.336 25.848 134.776 26.968 134.104 27.992C133.432 28.984 132.584 29.8 131.56 30.44C130.536 31.048 129.256 31.352 127.72 31.352C127.304 31.352 126.824 31.288 126.28 31.16C125.768 31.032 125.336 30.904 124.984 30.776C124.12 32.472 122.984 33.864 121.576 34.952C120.2 36.008 118.824 36.536 117.448 36.536ZM118.36 34.136C118.776 34.136 119.288 33.928 119.896 33.512C120.536 33.096 121.16 32.552 121.768 31.88C122.408 31.176 122.904 30.44 123.256 29.672C122.584 28.776 122.248 27.432 122.248 25.64C122.248 25.256 122.296 24.744 122.392 24.104C122.52 23.464 122.68 22.808 122.872 22.136C123.096 21.432 123.352 20.84 123.64 20.36C123 20.968 122.344 21.656 121.672 22.424C121.032 23.16 120.424 23.944 119.848 24.776C119.272 25.576 118.76 26.392 118.312 27.224C117.864 28.024 117.512 28.824 117.256 29.624C117 30.392 116.872 31.128 116.872 31.832C116.872 32.696 117 33.304 117.256 33.656C117.544 33.976 117.912 34.136 118.36 34.136ZM152.637 36.536C151.197 36.536 150.205 36.056 149.661 35.096C149.149 34.168 148.893 33.144 148.893 32.024C148.893 31 149.053 29.96 149.373 28.904C149.693 27.816 150.125 26.808 150.669 25.88C151.245 24.952 151.869 24.216 152.541 23.672C153.245 23.096 153.949 22.808 154.653 22.808C154.877 22.808 155.133 22.856 155.421 22.952C155.741 23.016 155.965 23.128 156.093 23.288C155.709 23.768 155.309 24.36 154.893 25.064C154.509 25.768 154.141 26.52 153.789 27.32C153.469 28.088 153.213 28.872 153.021 29.672C152.829 30.472 152.733 31.208 152.733 31.88C152.733 32.52 152.845 33.048 153.069 33.464C153.325 33.88 153.757 34.088 154.365 34.088C154.973 34.088 155.693 33.752 156.525 33.08C157.389 32.376 158.205 31.576 158.973 30.68C157.949 29.752 157.213 28.744 156.765 27.656C156.317 26.536 156.093 25.192 156.093 23.624C156.093 22.952 156.253 22.184 156.573 21.32C156.925 20.456 157.469 19.704 158.205 19.064C158.973 18.424 159.997 18.104 161.277 18.104C162.653 18.104 163.613 18.488 164.157 19.256C164.733 20.024 165.021 20.936 165.021 21.992C165.021 23.176 164.701 24.504 164.061 25.976C163.453 27.448 162.717 28.84 161.853 30.152C162.237 30.344 162.685 30.44 163.197 30.44C163.677 30.44 164.253 30.328 164.925 30.104C165.597 29.88 166.253 29.512 166.893 29C167.533 28.456 168.045 27.736 168.429 26.84L169.293 27.464C168.589 29.096 167.645 30.296 166.461 31.064C165.309 31.8 164.173 32.168 163.053 32.168C162.637 32.168 162.221 32.136 161.805 32.072C161.389 31.976 161.005 31.864 160.653 31.736C159.565 33.016 158.317 34.136 156.909 35.096C155.501 36.056 154.077 36.536 152.637 36.536ZM160.221 29.144C160.989 28.024 161.645 26.824 162.189 25.544C162.733 24.264 163.005 23.08 163.005 21.992C163.005 21.256 162.893 20.728 162.669 20.408C162.445 20.056 162.109 19.88 161.661 19.88C161.053 19.88 160.429 20.312 159.789 21.176C159.149 22.04 158.829 23.128 158.829 24.44C158.829 25.112 158.941 25.928 159.165 26.888C159.421 27.848 159.773 28.6 160.221 29.144ZM184.165 37.208C182.757 37.208 181.621 36.792 180.757 35.96C179.893 35.128 179.461 33.864 179.461 32.168C179.461 30.856 179.701 29.224 180.181 27.272C180.693 25.32 181.333 23.304 182.101 21.224C181.877 21.16 181.605 21.112 181.285 21.08C180.997 21.016 180.709 20.92 180.421 20.792V19.304C180.933 19.368 181.349 19.416 181.669 19.448C182.021 19.48 182.373 19.512 182.725 19.544C183.397 17.848 184.117 16.216 184.885 14.648C185.685 13.048 186.469 11.624 187.237 10.376C188.037 9.128 188.789 8.152 189.493 7.448C190.197 6.712 190.821 6.344 191.365 6.344C191.685 6.344 191.989 6.472 192.277 6.728C192.565 6.952 192.709 7.288 192.709 7.736C192.709 8.376 192.373 9.288 191.701 10.472C191.061 11.656 190.261 13.048 189.301 14.648C188.341 16.216 187.413 17.896 186.517 19.688C186.773 19.688 187.029 19.688 187.285 19.688C187.541 19.688 187.781 19.688 188.005 19.688C189.413 19.688 190.677 19.672 191.797 19.64C192.949 19.576 194.117 19.48 195.301 19.352V20.936C193.541 21.096 191.925 21.224 190.453 21.32C188.981 21.416 187.573 21.48 186.229 21.512C186.133 21.512 186.037 21.512 185.941 21.512C185.845 21.512 185.749 21.512 185.653 21.512C184.981 23.08 184.389 24.696 183.877 26.36C183.397 27.992 183.157 29.592 183.157 31.16C183.157 32.472 183.365 33.4 183.781 33.944C184.197 34.488 184.853 34.76 185.749 34.76C187.349 34.76 188.981 34.04 190.645 32.6C192.341 31.128 193.813 29.144 195.061 26.648L195.733 27.128C194.901 29.016 193.861 30.728 192.613 32.264C191.397 33.8 190.069 35 188.629 35.864C187.189 36.76 185.701 37.208 184.165 37.208ZM197.465 36.44C196.057 36.44 195.001 36.024 194.297 35.192C193.593 34.36 193.241 33.352 193.241 32.168C193.241 31.432 193.369 30.504 193.625 29.384C193.881 28.264 194.233 27.096 194.681 25.88C195.161 24.632 195.705 23.464 196.313 22.376C196.921 21.288 197.577 20.408 198.281 19.736C198.985 19.032 199.689 18.68 200.393 18.68C200.777 18.68 201.113 18.808 201.401 19.064C201.689 19.288 201.833 19.624 201.833 20.072C201.833 20.488 201.577 21.112 201.065 21.944C200.585 22.776 200.009 23.736 199.337 24.824C198.697 25.912 198.121 27.048 197.609 28.232C197.129 29.384 196.889 30.488 196.889 31.544C196.889 32.568 197.065 33.256 197.417 33.608C197.801 33.928 198.345 34.088 199.049 34.088C200.137 34.088 201.321 33.544 202.601 32.456C203.881 31.368 205.209 29.464 206.585 26.744L207.305 27.512C206.185 30.328 204.761 32.52 203.033 34.088C201.305 35.656 199.449 36.44 197.465 36.44ZM203.129 14.792C202.521 14.792 201.961 14.648 201.449 14.36C200.969 14.04 200.729 13.56 200.729 12.92C200.729 12.152 201.145 11.496 201.977 10.952C202.809 10.408 203.673 10.136 204.569 10.136C205.145 10.136 205.625 10.264 206.009 10.52C206.425 10.776 206.633 11.24 206.633 11.912C206.633 12.584 206.265 13.24 205.529 13.88C204.793 14.488 203.993 14.792 203.129 14.792ZM230.448 36.488C229.2 36.488 228.272 36.12 227.664 35.384C227.056 34.648 226.752 33.768 226.752 32.744C226.752 32.008 226.864 31.272 227.088 30.536C227.312 29.8 227.536 29.08 227.76 28.376C227.984 27.64 228.096 26.984 228.096 26.408C228.096 25.864 227.984 25.496 227.76 25.304C227.568 25.08 227.312 24.968 226.992 24.968C226.256 24.968 225.392 25.528 224.4 26.648C223.44 27.768 222.24 29.4 220.8 31.544C220.288 32.312 219.808 33.128 219.36 33.992C218.912 34.824 218.512 35.528 218.16 36.104C217.872 36.104 217.488 36.056 217.008 35.96C216.56 35.864 216.16 35.72 215.808 35.528C215.456 35.368 215.28 35.144 215.28 34.856C215.28 34.568 215.44 34.008 215.76 33.176C216.08 32.344 216.448 31.384 216.864 30.296C217.28 29.176 217.648 28.088 217.968 27.032C218.288 25.944 218.448 25.032 218.448 24.296C218.448 23.848 218.368 23.496 218.208 23.24C218.048 22.984 217.792 22.856 217.44 22.856C216.768 22.856 215.952 23.256 214.992 24.056C214.064 24.856 213.072 25.912 212.016 27.224C210.992 28.504 210.016 29.944 209.088 31.544C208.192 33.112 207.456 34.696 206.88 36.296C206.528 36.296 206.096 36.216 205.584 36.056C205.072 35.928 204.624 35.752 204.24 35.528C203.856 35.336 203.664 35.16 203.664 35C203.664 34.968 203.776 34.52 204 33.656C204.224 32.76 204.496 31.656 204.816 30.344C205.136 29.032 205.472 27.688 205.824 26.312C206.176 24.936 206.48 23.736 206.736 22.712C206.832 22.36 207.184 22.056 207.792 21.8C208.4 21.512 208.928 21.368 209.376 21.368C209.824 21.368 210.208 21.512 210.528 21.8C210.848 22.088 211.008 22.472 211.008 22.952C211.008 23.272 210.944 23.736 210.816 24.344C210.688 24.952 210.528 25.64 210.336 26.408C211.008 25.512 211.712 24.632 212.448 23.768C213.216 22.872 214 22.072 214.8 21.368C215.632 20.664 216.448 20.104 217.248 19.688C218.08 19.272 218.896 19.064 219.696 19.064C220.88 19.064 221.68 19.496 222.096 20.36C222.512 21.192 222.72 22.104 222.72 23.096C222.72 23.512 222.688 23.928 222.624 24.344C222.56 24.728 222.464 25.128 222.336 25.544C222.24 25.928 222.096 26.392 221.904 26.936C222.512 26.04 223.168 25.224 223.872 24.488C224.608 23.72 225.392 23.112 226.224 22.664C227.056 22.216 227.936 21.992 228.864 21.992C230.112 21.992 230.976 22.376 231.456 23.144C231.936 23.88 232.176 24.696 232.176 25.592C232.176 26.424 232.032 27.304 231.744 28.232C231.488 29.128 231.216 29.992 230.928 30.824C230.672 31.624 230.544 32.312 230.544 32.888C230.544 33.208 230.624 33.512 230.784 33.8C230.944 34.056 231.264 34.184 231.744 34.184C232.608 34.184 233.44 33.784 234.24 32.984C235.04 32.184 235.776 31.208 236.448 30.056C237.152 28.872 237.744 27.752 238.224 26.696L239.04 27.704C238.528 29.016 237.856 30.36 237.024 31.736C236.224 33.08 235.28 34.2 234.192 35.096C233.104 36.024 231.856 36.488 230.448 36.488ZM242.599 37.112C240.551 37.112 238.967 36.552 237.847 35.432C236.759 34.344 236.215 32.968 236.215 31.304C236.215 29.896 236.567 28.408 237.271 26.84C238.007 25.24 238.983 23.752 240.199 22.376C241.415 20.968 242.759 19.832 244.231 18.968C245.703 18.104 247.175 17.672 248.647 17.672C249.479 17.672 250.263 17.896 250.999 18.344C251.767 18.76 252.151 19.608 252.151 20.888C252.151 22.104 251.799 23.24 251.095 24.296C250.391 25.352 249.447 26.296 248.263 27.128C247.079 27.96 245.767 28.648 244.327 29.192C242.919 29.704 241.495 30.04 240.055 30.2C240.023 30.328 239.991 30.472 239.959 30.632C239.959 30.76 239.959 30.984 239.959 31.304C239.959 31.464 239.975 31.752 240.007 32.168C240.071 32.552 240.215 32.968 240.439 33.416C240.663 33.864 241.031 34.248 241.543 34.568C242.055 34.888 242.759 35.048 243.655 35.048C244.999 35.048 246.343 34.68 247.687 33.944C249.063 33.176 250.343 32.168 251.527 30.92C252.743 29.672 253.751 28.28 254.551 26.744L255.511 27.512C254.647 29.432 253.527 31.112 252.151 32.552C250.807 33.992 249.303 35.112 247.639 35.912C246.007 36.712 244.327 37.112 242.599 37.112ZM240.583 28.424C241.415 28.328 242.343 28.04 243.367 27.56C244.391 27.08 245.367 26.472 246.295 25.736C247.255 25 248.039 24.2 248.647 23.336C249.255 22.44 249.559 21.544 249.559 20.648C249.559 20.296 249.495 20.056 249.367 19.928C249.239 19.8 249.031 19.736 248.743 19.736C248.007 19.736 247.239 20.008 246.439 20.552C245.639 21.064 244.855 21.752 244.087 22.616C243.319 23.448 242.631 24.376 242.023 25.4C241.415 26.424 240.935 27.432 240.583 28.424ZM262.271 36.248C261.087 36.248 260.127 35.928 259.391 35.288C258.655 34.68 258.287 33.848 258.287 32.792C258.287 31.896 258.511 30.936 258.959 29.912C259.407 28.888 259.855 27.88 260.303 26.888C260.783 25.896 261.023 25.016 261.023 24.248C261.023 23.512 260.783 22.904 260.303 22.424C259.823 21.912 259.263 21.496 258.623 21.176C257.919 22.936 257.119 24.648 256.223 26.312C255.359 27.944 254.655 29.224 254.111 30.152L253.391 28.76C253.839 27.928 254.431 26.744 255.167 25.208C255.903 23.672 256.607 21.96 257.279 20.072C256.959 19.752 256.799 19.32 256.799 18.776C256.799 17.944 257.055 17.16 257.567 16.424C258.079 15.688 258.575 15.32 259.055 15.32C259.439 15.32 259.711 15.544 259.871 15.992C260.063 16.408 260.159 16.696 260.159 16.856C260.159 17.016 260.079 17.304 259.919 17.72C259.791 18.136 259.695 18.44 259.631 18.632C259.663 18.984 259.935 19.336 260.447 19.688C260.991 20.008 261.599 20.392 262.271 20.84C262.943 21.288 263.535 21.848 264.047 22.52C264.559 23.192 264.815 24.04 264.815 25.064C264.815 25.992 264.607 26.936 264.191 27.896C263.775 28.856 263.359 29.752 262.943 30.584C262.527 31.416 262.319 32.136 262.319 32.744C262.319 33.192 262.431 33.496 262.655 33.656C262.911 33.784 263.199 33.848 263.519 33.848C264.287 33.848 265.087 33.624 265.919 33.176C266.751 32.696 267.567 32.088 268.367 31.352C269.167 30.616 269.871 29.848 270.479 29.048C271.087 28.216 271.551 27.464 271.871 26.792L273.023 27.656C272.415 29.032 271.535 30.392 270.383 31.736C269.231 33.048 267.951 34.136 266.543 35C265.135 35.832 263.711 36.248 262.271 36.248Z" fill="#E53E3E"/>
</svg>
